<svg width="71" height="71" viewBox="0 0 71 71" fill="none" xmlns="http://www.w3.org/2000/svg">
<path d="M65.9286 27.8929H43.1071V5.07143C43.1071 2.27105 40.8361 0 38.0357 0H32.9643C30.1639 0 27.8929 2.27105 27.8929 5.07143V27.8929H5.07143C2.27105 27.8929 0 30.1639 0 32.9643V38.0357C0 40.8361 2.27105 43.1071 5.07143 43.1071H27.8929V65.9286C27.8929 68.729 30.1639 71 32.9643 71H38.0357C40.8361 71 43.1071 68.729 43.1071 65.9286V43.1071H65.9286C68.729 43.1071 71 40.8361 71 38.0357V32.9643C71 30.1639 68.729 27.8929 65.9286 27.8929Z" fill="black"/>
</svg>
