<svg width="71" height="71" viewBox="0 0 71 71" fill="none" xmlns="http://www.w3.org/2000/svg">
<path d="M70.0344 61.3841L56.2078 47.5598C55.5838 46.9358 54.7378 46.5892 53.8502 46.5892H51.5897C55.4173 41.6946 57.6917 35.5381 57.6917 28.8409C57.6917 12.9091 44.7804 0 28.8459 0C12.9113 0 0 12.9091 0 28.8409C0 44.7728 12.9113 57.6819 28.8459 57.6819C35.5442 57.6819 41.7017 55.4079 46.5972 51.5809V53.841C46.5972 54.7284 46.9439 55.5743 47.5679 56.1982L61.3945 70.0225C62.6981 71.3259 64.8061 71.3259 66.0959 70.0225L70.0206 66.0984C71.3242 64.795 71.3242 62.6874 70.0344 61.3841ZM28.8459 46.5892C19.041 46.5892 11.0946 38.6579 11.0946 28.8409C11.0946 19.0378 19.0272 11.0927 28.8459 11.0927C38.6507 11.0927 46.5972 19.0239 46.5972 28.8409C46.5972 38.6441 38.6645 46.5892 28.8459 46.5892Z" fill="black"/>
</svg>
